<svg width="568" height="113" viewBox="0 0 568 113" fill="none" xmlns="http://www.w3.org/2000/svg">
<path d="M64.3466 28.7642C63.7074 23.3665 61.1151 19.1761 56.5696 16.1932C52.0242 13.2102 46.4489 11.7187 39.8438 11.7187C35.0142 11.7187 30.7884 12.5 27.1662 14.0625C23.5795 15.625 20.7741 17.7734 18.75 20.5078C16.7614 23.2422 15.767 26.3494 15.767 29.8295C15.767 32.7415 16.4595 35.245 17.8445 37.3402C19.2649 39.3999 21.076 41.1222 23.2777 42.5071C25.4794 43.8565 27.7876 44.9751 30.2024 45.8629C32.6172 46.7152 34.8366 47.4077 36.8608 47.9403L47.9403 50.9233C50.7813 51.669 53.9418 52.6989 57.4219 54.0128C60.9375 55.3267 64.2933 57.12 67.4893 59.3927C70.7209 61.63 73.3842 64.5064 75.4794 68.022C77.5746 71.5376 78.6222 75.8523 78.6222 80.9659C78.6222 86.8608 77.0774 92.1875 73.9879 96.946C70.934 101.705 66.4595 105.487 60.5646 108.292C54.7053 111.097 47.5852 112.5 39.2045 112.5C31.392 112.5 24.6271 111.239 18.9098 108.718C13.228 106.197 8.75355 102.681 5.48651 98.1712C2.25497 93.6612 0.426136 88.4233 -4.39584e-07 82.4574H13.6364C13.9915 86.5767 15.3764 89.9858 17.7912 92.6847C20.2415 95.348 23.331 97.3366 27.0597 98.6506C30.8239 99.929 34.8722 100.568 39.2045 100.568C44.2472 100.568 48.7749 99.7514 52.7876 98.1179C56.8004 96.4489 59.9787 94.1406 62.3224 91.1932C64.6662 88.2102 65.8381 84.7301 65.8381 80.7528C65.8381 77.1307 64.826 74.1832 62.8018 71.9105C60.7777 69.6378 58.1143 67.7912 54.8118 66.3707C51.5092 64.9503 47.9403 63.7074 44.1051 62.642L30.6818 58.8068C22.1591 56.3565 15.4119 52.8587 10.4403 48.3132C5.46875 43.7677 2.98295 37.8196 2.98295 30.4687C2.98295 24.3608 4.63423 19.0341 7.93679 14.4886C11.2749 9.90766 15.7493 6.35653 21.3601 3.83522C27.0064 1.2784 33.3097 -8.22544e-06 40.2699 -8.22544e-06C47.3011 -8.22544e-06 53.5511 1.26064 59.0199 3.78195C64.4886 6.26775 68.821 9.67684 72.017 14.0092C75.2486 18.3416 76.9531 23.2599 77.1307 28.7642H64.3466ZM111.208 61.3636V110.582H98.6373V1.49147H111.208V41.5483H112.274C114.191 37.3224 117.068 33.9666 120.903 31.4808C124.774 28.9595 129.923 27.6989 136.35 27.6989C141.926 27.6989 146.808 28.8175 150.999 31.0547C155.189 33.2564 158.438 36.6477 160.747 41.2287C163.09 45.7741 164.262 51.5625 164.262 58.5937V110.582H151.691V59.446C151.691 52.9474 150.004 47.9226 146.631 44.3714C143.293 40.7848 138.659 38.9915 132.728 38.9915C128.609 38.9915 124.916 39.8615 121.649 41.6016C118.417 43.3416 115.86 45.8807 113.978 49.2187C112.132 52.5568 111.208 56.6051 111.208 61.3636ZM211.337 112.5C206.152 112.5 201.447 111.523 197.221 109.57C192.995 107.582 189.64 104.723 187.154 100.994C184.668 97.2301 183.425 92.6847 183.425 87.358C183.425 82.6705 184.348 78.8707 186.195 75.9588C188.042 73.0114 190.51 70.7031 193.599 69.0341C196.689 67.365 200.098 66.1222 203.826 65.3054C207.591 64.4531 211.373 63.7784 215.172 63.2812C220.144 62.642 224.174 62.1626 227.264 61.843C230.389 61.4879 232.662 60.902 234.082 60.0852C235.538 59.2685 236.266 57.848 236.266 55.8239V55.3977C236.266 50.142 234.828 46.0582 231.951 43.1463C229.11 40.2344 224.796 38.7784 219.007 38.7784C213.006 38.7784 208.301 40.0923 204.892 42.7202C201.483 45.348 199.086 48.1534 197.701 51.1364L185.769 46.875C187.9 41.9034 190.74 38.0327 194.292 35.2628C197.878 32.4574 201.784 30.5043 206.01 29.4034C210.272 28.267 214.462 27.6989 218.581 27.6989C221.209 27.6989 224.228 28.0185 227.637 28.6577C231.081 29.2614 234.402 30.522 237.598 32.4396C240.829 34.3572 243.51 37.2514 245.641 41.1222C247.772 44.9929 248.837 50.1776 248.837 56.6761V110.582H236.266V99.5028H235.627C234.775 101.278 233.354 103.178 231.365 105.202C229.377 107.227 226.731 108.949 223.429 110.369C220.126 111.79 216.096 112.5 211.337 112.5ZM213.255 101.207C218.226 101.207 222.417 100.231 225.826 98.2777C229.27 96.3246 231.863 93.8033 233.603 90.7138C235.378 87.6243 236.266 84.375 236.266 80.9659V69.4602C235.733 70.0994 234.561 70.6854 232.75 71.218C230.975 71.7152 228.915 72.1591 226.571 72.5497C224.263 72.9048 222.008 73.2244 219.806 73.5085C217.64 73.7571 215.882 73.9702 214.533 74.1477C211.266 74.5739 208.212 75.2663 205.371 76.2251C202.566 77.1484 200.293 78.5511 198.553 80.4332C196.848 82.2798 195.996 84.8011 195.996 87.9972C195.996 92.3651 197.612 95.6676 200.843 97.9048C204.11 100.107 208.248 101.207 213.255 101.207ZM302.677 112.287C295.858 112.287 289.839 110.565 284.619 107.12C279.399 103.64 275.315 98.7393 272.368 92.4183C269.42 86.0618 267.947 78.5511 267.947 69.8864C267.947 61.2926 269.42 53.8352 272.368 47.5142C275.315 41.1932 279.417 36.3104 284.672 32.8658C289.928 29.4212 296.001 27.6989 302.89 27.6989C308.216 27.6989 312.425 28.5866 315.514 30.3622C318.639 32.1023 321.018 34.0909 322.652 36.3281C324.321 38.5298 325.617 40.3409 326.54 41.7614H327.606V1.49147H340.177V110.582H328.032V98.0114H326.54C325.617 99.5028 324.303 101.385 322.599 103.658C320.894 105.895 318.461 107.901 315.301 109.677C312.14 111.417 307.932 112.287 302.677 112.287ZM304.381 100.994C309.424 100.994 313.685 99.6804 317.165 97.0526C320.645 94.3892 323.291 90.7138 325.102 86.0263C326.913 81.3033 327.819 75.8523 327.819 69.6733C327.819 63.5653 326.931 58.2209 325.155 53.6399C323.38 49.0234 320.752 45.4368 317.272 42.88C313.792 40.2876 309.495 38.9915 304.381 38.9915C299.055 38.9915 294.616 40.3587 291.064 43.093C287.549 45.7919 284.903 49.4673 283.128 54.1193C281.388 58.7358 280.518 63.9204 280.518 69.6733C280.518 75.4972 281.405 80.7883 283.181 85.5469C284.992 90.2699 287.655 94.0341 291.171 96.8395C294.722 99.6094 299.126 100.994 304.381 100.994ZM399.25 112.287C391.366 112.287 384.566 110.547 378.849 107.067C373.167 103.551 368.781 98.6506 365.692 92.3651C362.638 86.044 361.111 78.6932 361.111 70.3125C361.111 61.9318 362.638 54.5454 365.692 48.1534C368.781 41.7258 373.078 36.7187 378.582 33.1321C384.122 29.5099 390.585 27.6989 397.971 27.6989C402.233 27.6989 406.441 28.4091 410.596 29.8295C414.751 31.25 418.532 33.5582 421.942 36.7543C425.351 39.9148 428.067 44.1051 430.091 49.3253C432.116 54.5454 433.128 60.973 433.128 68.6079V73.9347H370.059V63.0682H420.344C420.344 58.4517 419.42 54.3324 417.574 50.7102C415.763 47.0881 413.17 44.2294 409.797 42.1342C406.459 40.0391 402.517 38.9915 397.971 38.9915C392.964 38.9915 388.632 40.2344 384.974 42.7202C381.352 45.1704 378.564 48.3665 376.611 52.3082C374.658 56.25 373.682 60.4758 373.682 64.9858V72.2301C373.682 78.4091 374.747 83.647 376.878 87.9439C379.044 92.2053 382.045 95.4545 385.88 97.6918C389.715 99.8935 394.172 100.994 399.25 100.994C402.552 100.994 405.535 100.533 408.199 99.6094C410.898 98.6506 413.224 97.2301 415.177 95.348C417.13 93.4304 418.639 91.0511 419.704 88.2102L431.849 91.6193C430.571 95.7386 428.422 99.3608 425.404 102.486C422.385 105.575 418.657 107.99 414.218 109.73C409.779 111.435 404.79 112.287 399.25 112.287ZM452.251 110.582V28.7642H464.395V41.1222H465.248C466.739 37.0739 469.438 33.7891 473.344 31.2677C477.251 28.7464 481.654 27.4858 486.555 27.4858C487.478 27.4858 488.632 27.5035 490.017 27.5391C491.402 27.5746 492.449 27.6278 493.16 27.6989V40.4829C492.733 40.3764 491.757 40.2166 490.23 40.0035C488.738 39.755 487.158 39.6307 485.489 39.6307C481.512 39.6307 477.961 40.4652 474.836 42.1342C471.746 43.7677 469.296 46.0405 467.485 48.9524C465.709 51.8288 464.822 55.1136 464.822 58.8068V110.582H452.251ZM566.016 47.0881L554.723 50.2841C554.013 48.402 552.965 46.5731 551.58 44.7976C550.231 42.9865 548.384 41.495 546.04 40.3231C543.697 39.1513 540.696 38.5653 537.038 38.5653C532.031 38.5653 527.859 39.7195 524.521 42.0277C521.218 44.3004 519.567 47.1946 519.567 50.7102C519.567 53.8352 520.703 56.3033 522.976 58.1143C525.249 59.9254 528.8 61.4347 533.629 62.642L545.774 65.625C553.089 67.4006 558.54 70.1172 562.127 73.7749C565.714 77.397 567.507 82.0668 567.507 87.7841C567.507 92.4716 566.158 96.6619 563.459 100.355C560.795 104.048 557.067 106.96 552.273 109.091C547.479 111.222 541.903 112.287 535.547 112.287C527.202 112.287 520.295 110.476 514.826 106.854C509.357 103.232 505.895 97.9403 504.439 90.9801L516.371 87.9972C517.507 92.4006 519.656 95.7031 522.816 97.9048C526.012 100.107 530.185 101.207 535.334 101.207C541.193 101.207 545.845 99.9645 549.29 97.4787C552.77 94.9574 554.51 91.9389 554.51 88.4233C554.51 85.5824 553.516 83.2031 551.527 81.2855C549.538 79.3324 546.484 77.8764 542.365 76.9176L528.729 73.7216C521.236 71.946 515.732 69.1939 512.216 65.4652C508.736 61.701 506.996 56.9957 506.996 51.3494C506.996 46.7329 508.292 42.6491 510.884 39.098C513.512 35.5469 517.081 32.7592 521.591 30.7351C526.136 28.7109 531.286 27.6989 537.038 27.6989C545.135 27.6989 551.491 29.4744 556.108 33.0256C560.76 36.5767 564.063 41.2642 566.016 47.0881Z" fill="white"/>
</svg>
